<svg width="124" height="124" viewBox="0 0 124 124" fill="none" xmlns="http://www.w3.org/2000/svg">
<path d="M53.1789 19.9052L9.49155 92.8379C8.59081 94.3977 8.11421 96.1663 8.10917 97.9675C8.10413 99.7687 8.57081 101.54 9.4628 103.105C10.3548 104.67 11.641 105.974 13.1934 106.887C14.7458 107.801 16.5104 108.292 18.3116 108.312H105.686C107.487 108.292 109.252 107.801 110.804 106.887C112.357 105.974 113.643 104.67 114.535 103.105C115.427 101.54 115.894 99.7687 115.889 97.9675C115.884 96.1663 115.407 94.3977 114.506 92.8379L70.819 19.9052C69.8995 18.3893 68.6048 17.136 67.0599 16.2662C65.5149 15.3964 63.7719 14.9395 61.9989 14.9395C60.226 14.9395 58.483 15.3964 56.938 16.2662C55.3931 17.136 54.0984 18.3893 53.1789 19.9052Z" stroke="#EB5757" stroke-width="10.3158" stroke-linecap="round" stroke-linejoin="round"/>
<path d="M62 46.4209V67.0525" stroke="#EB5757" stroke-width="10.3158" stroke-linecap="round" stroke-linejoin="round"/>
<path d="M62 87.6841H62.0516" stroke="#EB5757" stroke-width="10.3158" stroke-linecap="round" stroke-linejoin="round"/>
</svg>
